<mxfile host="app.diagrams.net" modified="2024-06-24T22:35:04.313Z" agent="Mozilla/5.0 (Windows NT 10.0; Win64; x64) AppleWebKit/537.36 (KHTML, like Gecko) Chrome/126.0.0.0 Safari/537.36" etag="x51jm3hWa007tOEDZmDN" version="24.2.2" type="device">
  <diagram name="Page-1" id="Gf5StURLBaStH5bXGFym">
    <mxGraphModel dx="2600" dy="870" grid="1" gridSize="10" guides="1" tooltips="1" connect="1" arrows="1" fold="1" page="1" pageScale="1" pageWidth="850" pageHeight="1100" math="0" shadow="0">
      <root>
        <mxCell id="0" />
        <mxCell id="1" parent="0" />
        <object placeholders="1" c4Name="The Movie Database" c4Type="Software System" c4Description="Provides extra information about the movies and TV shows" label="&lt;font style=&quot;font-size: 16px&quot;&gt;&lt;b&gt;%c4Name%&lt;/b&gt;&lt;/font&gt;&lt;div&gt;[%c4Type%]&lt;/div&gt;&lt;br&gt;&lt;div&gt;&lt;font style=&quot;font-size: 11px&quot;&gt;&lt;font color=&quot;#cccccc&quot;&gt;%c4Description%&lt;/font&gt;&lt;/div&gt;" id="NRhWUUdTRo63XTgR1UcV-9">
          <mxCell style="rounded=1;whiteSpace=wrap;html=1;labelBackgroundColor=none;fillColor=#8C8496;fontColor=#ffffff;align=center;arcSize=10;strokeColor=#736782;metaEdit=1;resizable=0;points=[[0.25,0,0],[0.5,0,0],[0.75,0,0],[1,0.25,0],[1,0.5,0],[1,0.75,0],[0.75,1,0],[0.5,1,0],[0.25,1,0],[0,0.75,0],[0,0.5,0],[0,0.25,0]];" vertex="1" parent="1">
            <mxGeometry x="800" y="730" width="240" height="120" as="geometry" />
          </mxCell>
        </object>
        <mxCell id="NRhWUUdTRo63XTgR1UcV-20" style="rounded=0;orthogonalLoop=1;jettySize=auto;html=1;dashed=1;dashPattern=8 8;entryX=0.5;entryY=0;entryDx=0;entryDy=0;entryPerimeter=0;" edge="1" parent="1" source="NRhWUUdTRo63XTgR1UcV-15" target="NRhWUUdTRo63XTgR1UcV-43">
          <mxGeometry relative="1" as="geometry">
            <mxPoint x="360" y="300" as="targetPoint" />
          </mxGeometry>
        </mxCell>
        <mxCell id="NRhWUUdTRo63XTgR1UcV-26" value="Makes API calls to&lt;div&gt;&lt;font style=&quot;font-size: 9px;&quot;&gt;[HTTPS]&lt;/font&gt;&lt;/div&gt;" style="edgeLabel;html=1;align=center;verticalAlign=middle;resizable=0;points=[];" vertex="1" connectable="0" parent="NRhWUUdTRo63XTgR1UcV-20">
          <mxGeometry x="-0.06" y="-2" relative="1" as="geometry">
            <mxPoint as="offset" />
          </mxGeometry>
        </mxCell>
        <object placeholders="1" c4Name="Web Application" c4Type="Container" c4Technology="PHP, HTML, Javascript" c4Description="Provides all of the Movie and TV Show Explorer functionality to users via their web browser." label="&lt;font style=&quot;font-size: 16px&quot;&gt;&lt;b&gt;%c4Name%&lt;/b&gt;&lt;/font&gt;&lt;div&gt;[%c4Type%: %c4Technology%]&lt;/div&gt;&lt;br&gt;&lt;div&gt;&lt;font style=&quot;font-size: 11px&quot;&gt;&lt;font color=&quot;#E6E6E6&quot;&gt;%c4Description%&lt;/font&gt;&lt;/div&gt;" id="NRhWUUdTRo63XTgR1UcV-15">
          <mxCell style="rounded=1;whiteSpace=wrap;html=1;fontSize=11;labelBackgroundColor=none;fillColor=#23A2D9;fontColor=#ffffff;align=center;arcSize=10;strokeColor=#0E7DAD;metaEdit=1;resizable=0;points=[[0.25,0,0],[0.5,0,0],[0.75,0,0],[1,0.25,0],[1,0.5,0],[1,0.75,0],[0.75,1,0],[0.5,1,0],[0.25,1,0],[0,0.75,0],[0,0.5,0],[0,0.25,0]];" vertex="1" parent="1">
            <mxGeometry x="240" y="50" width="240" height="120" as="geometry" />
          </mxCell>
        </object>
        <mxCell id="NRhWUUdTRo63XTgR1UcV-28" style="rounded=0;orthogonalLoop=1;jettySize=auto;html=1;dashed=1;dashPattern=8 8;entryX=0.5;entryY=0;entryDx=0;entryDy=0;entryPerimeter=0;exitX=1;exitY=0.5;exitDx=0;exitDy=0;exitPerimeter=0;edgeStyle=orthogonalEdgeStyle;" edge="1" parent="1" source="NRhWUUdTRo63XTgR1UcV-52" target="NRhWUUdTRo63XTgR1UcV-9">
          <mxGeometry relative="1" as="geometry">
            <mxPoint x="910" y="620" as="sourcePoint" />
            <mxPoint x="640" y="560" as="targetPoint" />
          </mxGeometry>
        </mxCell>
        <mxCell id="NRhWUUdTRo63XTgR1UcV-29" value="Makes API call to&lt;div style=&quot;font-size: 9px;&quot;&gt;[HTTPS]&lt;/div&gt;" style="edgeLabel;html=1;align=center;verticalAlign=middle;resizable=0;points=[];" vertex="1" connectable="0" parent="NRhWUUdTRo63XTgR1UcV-28">
          <mxGeometry x="0.0015" y="-1" relative="1" as="geometry">
            <mxPoint as="offset" />
          </mxGeometry>
        </mxCell>
        <object placeholders="1" c4Name="Container" c4Type="Database" c4Technology="MySQL" c4Description="Stores user registration information and movie and TV show information" label="&lt;font style=&quot;font-size: 16px&quot;&gt;&lt;b&gt;%c4Type%&lt;/b&gt;&lt;/font&gt;&lt;div&gt;[%c4Type%:&amp;nbsp;%c4Technology%]&lt;/div&gt;&lt;br&gt;&lt;div&gt;&lt;font style=&quot;font-size: 11px&quot;&gt;&lt;font color=&quot;#E6E6E6&quot;&gt;%c4Description%&lt;/font&gt;&lt;/div&gt;" id="NRhWUUdTRo63XTgR1UcV-30">
          <mxCell style="shape=cylinder3;size=15;whiteSpace=wrap;html=1;boundedLbl=1;rounded=0;labelBackgroundColor=none;fillColor=#23A2D9;fontSize=12;fontColor=#ffffff;align=center;strokeColor=#0E7DAD;metaEdit=1;points=[[0.5,0,0],[1,0.25,0],[1,0.5,0],[1,0.75,0],[0.5,1,0],[0,0.75,0],[0,0.5,0],[0,0.25,0]];resizable=0;" vertex="1" parent="1">
            <mxGeometry x="240" y="730" width="240" height="120" as="geometry" />
          </mxCell>
        </object>
        <mxCell id="NRhWUUdTRo63XTgR1UcV-31" style="rounded=0;orthogonalLoop=1;jettySize=auto;html=1;entryX=0;entryY=0.5;entryDx=0;entryDy=0;entryPerimeter=0;dashed=1;dashPattern=8 8;exitX=0.5;exitY=1;exitDx=0;exitDy=0;exitPerimeter=0;edgeStyle=orthogonalEdgeStyle;" edge="1" parent="1" source="NRhWUUdTRo63XTgR1UcV-41" target="NRhWUUdTRo63XTgR1UcV-30">
          <mxGeometry relative="1" as="geometry">
            <mxPoint x="120" y="600" as="sourcePoint" />
          </mxGeometry>
        </mxCell>
        <mxCell id="NRhWUUdTRo63XTgR1UcV-33" value="Reads from and&lt;div&gt;writes to&lt;/div&gt;&lt;div style=&quot;font-size: 9px;&quot;&gt;[MySQLi]&lt;/div&gt;" style="edgeLabel;html=1;align=center;verticalAlign=middle;resizable=0;points=[];" vertex="1" connectable="0" parent="NRhWUUdTRo63XTgR1UcV-31">
          <mxGeometry x="0.0031" relative="1" as="geometry">
            <mxPoint y="-16" as="offset" />
          </mxGeometry>
        </mxCell>
        <mxCell id="NRhWUUdTRo63XTgR1UcV-34" style="rounded=0;orthogonalLoop=1;jettySize=auto;html=1;dashed=1;dashPattern=8 8;entryX=0.5;entryY=0;entryDx=0;entryDy=0;entryPerimeter=0;" edge="1" parent="1" source="NRhWUUdTRo63XTgR1UcV-15" target="NRhWUUdTRo63XTgR1UcV-41">
          <mxGeometry relative="1" as="geometry">
            <mxPoint x="-45" y="100" as="sourcePoint" />
            <mxPoint x="-60" y="300" as="targetPoint" />
          </mxGeometry>
        </mxCell>
        <mxCell id="NRhWUUdTRo63XTgR1UcV-35" value="Makes API calls to&lt;div&gt;&lt;font style=&quot;font-size: 9px;&quot;&gt;[HTTPS]&lt;/font&gt;&lt;/div&gt;" style="edgeLabel;html=1;align=center;verticalAlign=middle;resizable=0;points=[];" vertex="1" connectable="0" parent="NRhWUUdTRo63XTgR1UcV-34">
          <mxGeometry x="-0.06" y="-2" relative="1" as="geometry">
            <mxPoint as="offset" />
          </mxGeometry>
        </mxCell>
        <object placeholders="1" c4Name="Sign In Controller" c4Type="Component" c4Technology="PHP, HTML, Javascript" c4Description="Allows users to sign in, sign out or register to the Movie and TV Show Explorer System" label="&lt;font style=&quot;font-size: 16px&quot;&gt;&lt;b&gt;%c4Name%&lt;/b&gt;&lt;/font&gt;&lt;div&gt;[%c4Type%: %c4Technology%]&lt;/div&gt;&lt;br&gt;&lt;div&gt;&lt;font style=&quot;font-size: 11px&quot;&gt;%c4Description%&lt;/font&gt;&lt;/div&gt;" id="NRhWUUdTRo63XTgR1UcV-41">
          <mxCell style="rounded=1;whiteSpace=wrap;html=1;labelBackgroundColor=none;fillColor=#63BEF2;fontColor=#ffffff;align=center;arcSize=6;strokeColor=#2086C9;metaEdit=1;resizable=0;points=[[0.25,0,0],[0.5,0,0],[0.75,0,0],[1,0.25,0],[1,0.5,0],[1,0.75,0],[0.75,1,0],[0.5,1,0],[0.25,1,0],[0,0.75,0],[0,0.5,0],[0,0.25,0]];" vertex="1" parent="1">
            <mxGeometry x="-90" y="290" width="240" height="120" as="geometry" />
          </mxCell>
        </object>
        <object placeholders="1" c4Name="Movie and Show Search Controller" c4Type="Component" c4Technology="PHP, HTML, Javascript" c4Description="Allows users to search for a movie or TV show." label="&lt;font style=&quot;font-size: 16px&quot;&gt;&lt;b&gt;%c4Name%&lt;/b&gt;&lt;/font&gt;&lt;div&gt;[%c4Type%: %c4Technology%]&lt;/div&gt;&lt;br&gt;&lt;div&gt;&lt;font style=&quot;font-size: 11px&quot;&gt;%c4Description%&lt;/font&gt;&lt;/div&gt;" id="NRhWUUdTRo63XTgR1UcV-43">
          <mxCell style="rounded=1;whiteSpace=wrap;html=1;labelBackgroundColor=none;fillColor=#63BEF2;fontColor=#ffffff;align=center;arcSize=6;strokeColor=#2086C9;metaEdit=1;resizable=0;points=[[0.25,0,0],[0.5,0,0],[0.75,0,0],[1,0.25,0],[1,0.5,0],[1,0.75,0],[0.75,1,0],[0.5,1,0],[0.25,1,0],[0,0.75,0],[0,0.5,0],[0,0.25,0]];" vertex="1" parent="1">
            <mxGeometry x="240" y="290" width="240" height="120" as="geometry" />
          </mxCell>
        </object>
        <object placeholders="1" c4Name="Movie or Show Information Component" c4Type="Component" c4Technology="PHP, HTML, Javascript" c4Description="Allows users to search for a movie or TV show and view information about it." label="&lt;font style=&quot;font-size: 16px&quot;&gt;&lt;b&gt;%c4Name%&lt;/b&gt;&lt;/font&gt;&lt;div&gt;[%c4Type%: %c4Technology%]&lt;/div&gt;&lt;br&gt;&lt;div&gt;&lt;font style=&quot;font-size: 11px&quot;&gt;%c4Description%&lt;/font&gt;&lt;/div&gt;" id="NRhWUUdTRo63XTgR1UcV-44">
          <mxCell style="rounded=1;whiteSpace=wrap;html=1;labelBackgroundColor=none;fillColor=#63BEF2;fontColor=#ffffff;align=center;arcSize=6;strokeColor=#2086C9;metaEdit=1;resizable=0;points=[[0.25,0,0],[0.5,0,0],[0.75,0,0],[1,0.25,0],[1,0.5,0],[1,0.75,0],[0.75,1,0],[0.5,1,0],[0.25,1,0],[0,0.75,0],[0,0.5,0],[0,0.25,0]];" vertex="1" parent="1">
            <mxGeometry x="240" y="500" width="240" height="120" as="geometry" />
          </mxCell>
        </object>
        <mxCell id="NRhWUUdTRo63XTgR1UcV-45" style="rounded=0;orthogonalLoop=1;jettySize=auto;html=1;entryX=0.5;entryY=0;entryDx=0;entryDy=0;entryPerimeter=0;dashed=1;dashPattern=8 8;" edge="1" parent="1" source="NRhWUUdTRo63XTgR1UcV-43" target="NRhWUUdTRo63XTgR1UcV-44">
          <mxGeometry relative="1" as="geometry" />
        </mxCell>
        <mxCell id="NRhWUUdTRo63XTgR1UcV-46" value="Uses" style="edgeLabel;html=1;align=center;verticalAlign=middle;resizable=0;points=[];" vertex="1" connectable="0" parent="NRhWUUdTRo63XTgR1UcV-45">
          <mxGeometry x="-0.1059" y="1" relative="1" as="geometry">
            <mxPoint x="-3" y="1" as="offset" />
          </mxGeometry>
        </mxCell>
        <mxCell id="NRhWUUdTRo63XTgR1UcV-47" style="rounded=0;orthogonalLoop=1;jettySize=auto;html=1;entryX=0.5;entryY=0;entryDx=0;entryDy=0;entryPerimeter=0;dashed=1;dashPattern=8 8;" edge="1" parent="1" source="NRhWUUdTRo63XTgR1UcV-44" target="NRhWUUdTRo63XTgR1UcV-30">
          <mxGeometry relative="1" as="geometry" />
        </mxCell>
        <mxCell id="NRhWUUdTRo63XTgR1UcV-49" value="Reads from and&lt;div&gt;writes to&lt;/div&gt;&lt;div style=&quot;font-size: 9px;&quot;&gt;[MySQLi]&lt;/div&gt;" style="edgeLabel;html=1;align=center;verticalAlign=middle;resizable=0;points=[];" vertex="1" connectable="0" parent="NRhWUUdTRo63XTgR1UcV-47">
          <mxGeometry x="-0.0652" y="-1" relative="1" as="geometry">
            <mxPoint y="18" as="offset" />
          </mxGeometry>
        </mxCell>
        <mxCell id="NRhWUUdTRo63XTgR1UcV-57" style="rounded=0;orthogonalLoop=1;jettySize=auto;html=1;dashed=1;dashPattern=8 8;" edge="1" parent="1" source="NRhWUUdTRo63XTgR1UcV-52" target="NRhWUUdTRo63XTgR1UcV-56">
          <mxGeometry relative="1" as="geometry" />
        </mxCell>
        <mxCell id="NRhWUUdTRo63XTgR1UcV-58" value="Uses" style="edgeLabel;html=1;align=center;verticalAlign=middle;resizable=0;points=[];" vertex="1" connectable="0" parent="NRhWUUdTRo63XTgR1UcV-57">
          <mxGeometry x="-0.017" relative="1" as="geometry">
            <mxPoint as="offset" />
          </mxGeometry>
        </mxCell>
        <object placeholders="1" c4Name="Movie And Show List Controller" c4Type="Component" c4Technology="PHP, HTML, Javascript" c4Description="Allows users to see the movies and TV shows provided by the Netflix and Disney+ services, as well as filter the available titles." label="&lt;font style=&quot;font-size: 16px&quot;&gt;&lt;b&gt;%c4Name%&lt;/b&gt;&lt;/font&gt;&lt;div&gt;[%c4Type%: %c4Technology%]&lt;/div&gt;&lt;br&gt;&lt;div&gt;&lt;font style=&quot;font-size: 11px&quot;&gt;%c4Description%&lt;/font&gt;&lt;/div&gt;" id="NRhWUUdTRo63XTgR1UcV-52">
          <mxCell style="rounded=1;whiteSpace=wrap;html=1;labelBackgroundColor=none;fillColor=#63BEF2;fontColor=#ffffff;align=center;arcSize=6;strokeColor=#2086C9;metaEdit=1;resizable=0;points=[[0.25,0,0],[0.5,0,0],[0.75,0,0],[1,0.25,0],[1,0.5,0],[1,0.75,0],[0.75,1,0],[0.5,1,0],[0.25,1,0],[0,0.75,0],[0,0.5,0],[0,0.25,0]];" vertex="1" parent="1">
            <mxGeometry x="570" y="290" width="240" height="120" as="geometry" />
          </mxCell>
        </object>
        <mxCell id="NRhWUUdTRo63XTgR1UcV-53" style="rounded=0;orthogonalLoop=1;jettySize=auto;html=1;dashed=1;dashPattern=8 8;entryX=0.5;entryY=0;entryDx=0;entryDy=0;entryPerimeter=0;exitX=0.999;exitY=1;exitDx=0;exitDy=0;exitPerimeter=0;" edge="1" parent="1" source="NRhWUUdTRo63XTgR1UcV-15" target="NRhWUUdTRo63XTgR1UcV-52">
          <mxGeometry relative="1" as="geometry">
            <mxPoint x="570" y="200" as="sourcePoint" />
            <mxPoint x="570" y="320" as="targetPoint" />
          </mxGeometry>
        </mxCell>
        <mxCell id="NRhWUUdTRo63XTgR1UcV-54" value="Makes API calls to&lt;div&gt;&lt;font style=&quot;font-size: 9px;&quot;&gt;[HTTPS]&lt;/font&gt;&lt;/div&gt;" style="edgeLabel;html=1;align=center;verticalAlign=middle;resizable=0;points=[];" vertex="1" connectable="0" parent="NRhWUUdTRo63XTgR1UcV-53">
          <mxGeometry x="-0.06" y="-2" relative="1" as="geometry">
            <mxPoint as="offset" />
          </mxGeometry>
        </mxCell>
        <object placeholders="1" c4Name="API Application" c4Type="ContainerScopeBoundary" c4Application="Container" label="&lt;font style=&quot;font-size: 16px&quot;&gt;&lt;b&gt;&lt;div style=&quot;text-align: left&quot;&gt;%c4Name%&lt;/div&gt;&lt;/b&gt;&lt;/font&gt;&lt;div style=&quot;text-align: left&quot;&gt;[%c4Application%]&lt;/div&gt;" id="NRhWUUdTRo63XTgR1UcV-55">
          <mxCell style="rounded=1;fontSize=11;whiteSpace=wrap;html=1;dashed=1;arcSize=20;fillColor=none;strokeColor=#666666;fontColor=#333333;labelBackgroundColor=none;align=left;verticalAlign=bottom;labelBorderColor=none;spacingTop=0;spacing=10;dashPattern=8 4;metaEdit=1;rotatable=0;perimeter=rectanglePerimeter;noLabel=0;labelPadding=0;allowArrows=0;connectable=0;expand=0;recursiveResize=0;editable=1;pointerEvents=0;absoluteArcSize=1;points=[[0.25,0,0],[0.5,0,0],[0.75,0,0],[1,0.25,0],[1,0.5,0],[1,0.75,0],[0.75,1,0],[0.5,1,0],[0.25,1,0],[0,0.75,0],[0,0.5,0],[0,0.25,0]];" vertex="1" parent="1">
            <mxGeometry x="-100" y="270" width="920" height="380" as="geometry" />
          </mxCell>
        </object>
        <mxCell id="NRhWUUdTRo63XTgR1UcV-59" style="edgeStyle=orthogonalEdgeStyle;rounded=0;orthogonalLoop=1;jettySize=auto;html=1;entryX=1;entryY=0.5;entryDx=0;entryDy=0;entryPerimeter=0;dashed=1;dashPattern=8 8;" edge="1" parent="1" source="NRhWUUdTRo63XTgR1UcV-56" target="NRhWUUdTRo63XTgR1UcV-30">
          <mxGeometry relative="1" as="geometry">
            <mxPoint x="580" y="769.9999999999998" as="targetPoint" />
            <Array as="points">
              <mxPoint x="690" y="790" />
            </Array>
          </mxGeometry>
        </mxCell>
        <mxCell id="NRhWUUdTRo63XTgR1UcV-60" value="Reads from and&lt;div&gt;writes to&lt;/div&gt;&lt;div style=&quot;font-size: 9px;&quot;&gt;[MySQLi]&lt;/div&gt;" style="edgeLabel;html=1;align=center;verticalAlign=middle;resizable=0;points=[];" vertex="1" connectable="0" parent="NRhWUUdTRo63XTgR1UcV-59">
          <mxGeometry x="-0.5784" y="-1" relative="1" as="geometry">
            <mxPoint x="1" y="-10" as="offset" />
          </mxGeometry>
        </mxCell>
        <object placeholders="1" c4Name="Statistics Component" c4Type="Component" c4Technology="PHP, HTML, Javascript" c4Description="Allows users to view and export statistics about the movies and TV shows provided by Netflix and Disney+." label="&lt;font style=&quot;font-size: 16px&quot;&gt;&lt;b&gt;%c4Name%&lt;/b&gt;&lt;/font&gt;&lt;div&gt;[%c4Type%: %c4Technology%]&lt;/div&gt;&lt;br&gt;&lt;div&gt;&lt;font style=&quot;font-size: 11px&quot;&gt;%c4Description%&lt;/font&gt;&lt;/div&gt;" id="NRhWUUdTRo63XTgR1UcV-56">
          <mxCell style="rounded=1;whiteSpace=wrap;html=1;labelBackgroundColor=none;fillColor=#63BEF2;fontColor=#ffffff;align=center;arcSize=6;strokeColor=#2086C9;metaEdit=1;resizable=0;points=[[0.25,0,0],[0.5,0,0],[0.75,0,0],[1,0.25,0],[1,0.5,0],[1,0.75,0],[0.75,1,0],[0.5,1,0],[0.25,1,0],[0,0.75,0],[0,0.5,0],[0,0.25,0]];" vertex="1" parent="1">
            <mxGeometry x="570" y="500" width="240" height="120" as="geometry" />
          </mxCell>
        </object>
        <mxCell id="NRhWUUdTRo63XTgR1UcV-61" style="edgeStyle=orthogonalEdgeStyle;rounded=0;orthogonalLoop=1;jettySize=auto;html=1;entryX=1;entryY=0.25;entryDx=0;entryDy=0;entryPerimeter=0;dashed=1;dashPattern=8 8;exitX=0;exitY=0.75;exitDx=0;exitDy=0;exitPerimeter=0;" edge="1" parent="1" source="NRhWUUdTRo63XTgR1UcV-52" target="NRhWUUdTRo63XTgR1UcV-30">
          <mxGeometry relative="1" as="geometry" />
        </mxCell>
        <mxCell id="NRhWUUdTRo63XTgR1UcV-62" value="Reads from and&lt;div&gt;writes to&lt;/div&gt;&lt;div style=&quot;font-size: 9px;&quot;&gt;[MySQLi]&lt;/div&gt;" style="edgeLabel;html=1;align=center;verticalAlign=middle;resizable=0;points=[];" vertex="1" connectable="0" parent="NRhWUUdTRo63XTgR1UcV-61">
          <mxGeometry x="0.5428" y="-1" relative="1" as="geometry">
            <mxPoint x="6" y="-1" as="offset" />
          </mxGeometry>
        </mxCell>
        <mxCell id="NRhWUUdTRo63XTgR1UcV-63" style="rounded=0;orthogonalLoop=1;jettySize=auto;html=1;entryX=0;entryY=0.5;entryDx=0;entryDy=0;entryPerimeter=0;jumpStyle=arc;dashed=1;dashPattern=8 8;" edge="1" parent="1" source="NRhWUUdTRo63XTgR1UcV-44" target="NRhWUUdTRo63XTgR1UcV-9">
          <mxGeometry relative="1" as="geometry" />
        </mxCell>
        <mxCell id="NRhWUUdTRo63XTgR1UcV-67" value="Makes API call to&lt;div style=&quot;font-size: 9px;&quot;&gt;[HTTPS]&lt;/div&gt;" style="edgeLabel;html=1;align=center;verticalAlign=middle;resizable=0;points=[];" vertex="1" connectable="0" parent="NRhWUUdTRo63XTgR1UcV-63">
          <mxGeometry x="0.4037" relative="1" as="geometry">
            <mxPoint x="30" y="21" as="offset" />
          </mxGeometry>
        </mxCell>
        <mxCell id="NRhWUUdTRo63XTgR1UcV-64" style="edgeStyle=orthogonalEdgeStyle;rounded=0;orthogonalLoop=1;jettySize=auto;html=1;entryX=1;entryY=0.25;entryDx=0;entryDy=0;entryPerimeter=0;dashed=1;dashPattern=8 8;" edge="1" parent="1" source="NRhWUUdTRo63XTgR1UcV-52" target="NRhWUUdTRo63XTgR1UcV-44">
          <mxGeometry relative="1" as="geometry">
            <Array as="points">
              <mxPoint x="500" y="350" />
              <mxPoint x="500" y="530" />
            </Array>
          </mxGeometry>
        </mxCell>
        <mxCell id="NRhWUUdTRo63XTgR1UcV-66" value="Uses" style="edgeLabel;html=1;align=center;verticalAlign=middle;resizable=0;points=[];" vertex="1" connectable="0" parent="NRhWUUdTRo63XTgR1UcV-64">
          <mxGeometry x="0.2902" y="1" relative="1" as="geometry">
            <mxPoint as="offset" />
          </mxGeometry>
        </mxCell>
      </root>
    </mxGraphModel>
  </diagram>
</mxfile>
